<svg preserveAspectRatio="none" overflow="visible" style="display: block;" width="72" height="72" viewBox="0 0 72 72" fill="none" xmlns="http://www.w3.org/2000/svg">
<path id="Vector" d="M36 0C16.2 0 0 16.1194 0 35.821V49.0747V53.3731V57.6718C0 65.5522 6.12 71.6417 14.04 71.6417C21.96 71.6417 28.08 65.5522 28.08 57.6718V48.7164C28.08 41.1941 21.96 34.7462 14.04 34.7462C11.52 35.1046 9.36 35.821 7.2 36.8954V35.821C7.2 20.0597 20.16 7.16417 36 7.16417C51.84 7.16417 64.8 20.0597 64.8 35.821V36.8954C62.64 35.821 60.48 35.1046 57.96 35.1046C50.4 35.1046 43.92 41.1941 43.92 49.0747V58.0298C43.92 65.5522 50.04 72 57.96 72C65.52 72 72 65.9105 72 58.0298V53.7314V49.4328V35.821C72 16.1194 55.8 0 36 0Z" fill="#393B3C"/>
</svg>
